<svg id="Layer_1" data-name="Layer 1" xmlns="http://www.w3.org/2000/svg" viewBox="0 0 150 150"><defs><style>.cls-1{fill:#f2f2f2;stroke:#000;stroke-miterlimit:10;stroke-width:0.5px;}</style></defs><title>logoBTWhite</title><g id="logo"><path class="cls-1" d="M44.31,44a40.59,40.59,0,0,1,6.1,3l1.09.6c3.08,1.73,6.1,3.55,9.09,5.45a32.79,32.79,0,0,1-2.34,4.85l-.87,1.53-1,1.64L56,62c-2.53,4.42-5.13,8.79-7.76,13.15-2.29,3.79-4.51,7.63-6.72,11.47C39,90.83,36.54,95,34,99.25c-.56.94-1.12,1.88-1.67,2.82-.43.73-.88,1.45-1.34,2.16a4.82,4.82,0,0,0-1.09,3.5,13.72,13.72,0,0,0,1.67,3.9L32.4,113c.28.46.55.93.83,1.41l1.63,2.78.73,1.24a9.66,9.66,0,0,1,1,2.93h.91c.11-.39.23-.78.35-1.19A21.86,21.86,0,0,1,40,115.91l1.11-1.81.64-1c1.47-2.43,2.89-4.89,4.33-7.35l1-1.7,3.07-5.25,3.87-6.61.47-.81q5.27-9,10.58-17.9a13.31,13.31,0,0,1,5.32,2.16l.86.52c.91.53,1.82,1.08,2.72,1.62l2.73,1.62,1.7,1c1.45.87,1.45.87,3,1.66a12.62,12.62,0,0,1-1.71,4.1l-.81,1.38L78,89c-.31.53-.62,1-.92,1.58q-1.22,2.08-2.44,4.17L73.2,97.21c-2.07,3.55-4.16,7.1-6.24,10.65l-4,6.85-1.38,2.35q-3.9,6.66-7.75,13.34h21.7c1-1.73,2-3.47,3-5.25q3.64-6.32,7.36-12.59,3-5.1,6-10.22l1-1.65,4.59-7.84,2.1-3.6,1-1.72L102,85.15c.27-.45.53-.91.8-1.37.83-1.37,1.7-2.69,2.6-4a118.2,118.2,0,0,1,11,6l1.42.88,3.44,2.11a16.78,16.78,0,0,1-2.07,4.78l-.53.93c-2.07,3.63-4.21,7.21-6.35,10.8q-3,5.14-6.06,10.31-4.44,7.63-9,15.23c2.94.51,5.81.81,8.59-.45,2.57-2.48,4-6,5.49-9.17,1.35-2.75,3-5.35,4.53-8,.84-1.4,1.67-2.82,2.5-4.24.28-.47.55-1,.84-1.44.39-.67.77-1.34,1.11-2a10.36,10.36,0,0,1,3.47,1.39l.91.55.93.58,1,.58c.78.47,1.55,1,2.32,1.43a12.49,12.49,0,0,1-1.57,3.91l-.71,1.25-.77,1.34L125,118q-3,5.28-6.14,10.5l-.66,1.11-.77,1.18A16.92,16.92,0,0,0,116,134.4c-.91,2.66-1.93,4.8-4.32,6.4-5.33,1.52-11.18,1-16.65.8-2.22-.06-4.43-.07-6.64-.09-3.66,0-7.32-.09-11-.16-5.37-.11-10.73-.12-16.09-.1H60.05l-4.93,0c-4.18,0-8.36,0-12.53,0h-2l-4.43,0-.5-.93-2.3-4.24-.79-1.47q-3-5.62-6.17-11.2l-3.86-6.94-.87-1.57q-3.39-6.11-6.76-12.22-2.68-4.89-5.4-9.75L7.39,89.06c-1.29-2.35-2.61-4.66-4-6.92L2.6,80.91c-.45-.74-.93-1.47-1.42-2.19a7.28,7.28,0,0,1-1.18-3,20.35,20.35,0,0,1,2.71-5c.52-.9,1-1.8,1.54-2.71s1.1-1.91,1.66-2.86l.88-1.53q2.94-5.09,5.93-10.14l.71-1.21q2.06-3.47,4.2-6.87c2.25.23,3.75,1.29,5.57,2.51l.89.59,2.13,1.42a35.38,35.38,0,0,1-2.54,5.26l-.51.91c-2.16,3.79-4.4,7.53-6.63,11.28l-1.76,3c-.46.77-.92,1.52-1.4,2.27a4.55,4.55,0,0,0-1.07,3.23A17.88,17.88,0,0,0,14,79.64l.8,1.47.84,1.51c.28.5.55,1,.84,1.53l2.07,3.75q3.9-6.44,7.68-12.94l.5-.85L30.29,68q2-3.48,4.07-7c.17-.27.33-.55.49-.84q3.18-5.4,6.41-10.78c1.06-1.77,2.07-3.57,3.05-5.39"/><path class="cls-1" d="M43.07,8.42c1,0,2,0,3,0l2.2,0c2,0,4,0,5.95,0l5,0c3.92,0,7.83,0,11.75,0s8.06,0,12.09,0c3.47-.05,6.93-.06,10.4-.05,2.07,0,4.14,0,6.2,0,12.53-.18,12.53-.18,15.39,1.75a13.44,13.44,0,0,1,3.12,6,17.59,17.59,0,0,0,1.9,3.9c.49.92,1,1.83,1.46,2.75,2,3.8,4.09,7.57,6.22,11.31q3,5.25,5.85,10.56,3.22,6,6.6,11.91c2.1,3.69,4.13,7.42,6.14,11.16l.7,1.29.65,1.22c.54,1,1.13,1.91,1.73,2.85.68,1.42.68,1.42.36,2.48-.61,1.25-1.25,2.44-1.95,3.64L147,80.47c-.3.5-.59,1-.89,1.52s-.61,1.06-.92,1.58q-6.27,10.82-12.73,21.51a34,34,0,0,1-5.57-2.77l-.88-.51-2.14-1.24a20.92,20.92,0,0,1,2.25-5.07l.82-1.35.89-1.44c.61-1,1.22-2,1.82-3L132.52,85q1.35-2.2,2.67-4.42l.85-1.36.76-1.29c.23-.36.45-.73.68-1.11.69-1.84.24-3.23-.52-5l-.63-1.13-.71-1.3L134.85,68l-.79-1.45q-3-5.49-6.16-10.94c-2-3.54-4-7.12-5.88-10.7q-2.51-4.66-5.14-9.26c-3-5.32-5.91-10.69-8.82-16l-63.75-.46-.9,2.26c-.43.81-.88,1.61-1.34,2.4l-.81,1.41-.88,1.51c-.29.51-.59,1-.9,1.55-3.15,5.44-6.39,10.82-9.64,16.19a13.72,13.72,0,0,1-5.31-2.2l-.81-.48c-2-1.22-2-1.22-2.47-2.74a12.4,12.4,0,0,1,1.07-2l.75-1.26.84-1.38,1.75-3,.94-1.57c1-1.69,2-3.38,3-5.07.16-.29.33-.57.5-.87l2-3.39c.46-.79.92-1.58,1.39-2.36l.79-1.37c.16-.24.31-.49.47-.74a13.16,13.16,0,0,0,1.18-2.38c1.72-3.43,3.1-5.07,7.17-5.26"/><path class="cls-1" d="M101.28,31.38c.09.81.09.81.19,1.64.23,2,.47,4.1.7,6.15l.3,2.63c.59,5.16,1.22,10.3,2,15.43a31.34,31.34,0,0,1,.42,5.8c-1-.58-2.06-1.16-3.08-1.75l-.88-.5c-1.27-.72-2.51-1.46-3.73-2.27H95.86a9.07,9.07,0,0,0-1.36,2.1L93.71,62l-.82,1.48c-.57,1-1.14,2-1.7,3l-.85,1.49q-1.71,3-3.47,5.95l-1.1,1.87L85,77.05a12.94,12.94,0,0,1-4.11-1.69l-1.35-.76-1.4-.8L76.76,73c-2.76-1.56-5.42-3.21-8-5a31.42,31.42,0,0,1,2.35-4.85l.86-1.5c.3-.52.61-1,.91-1.57l.93-1.59c2-3.5,4.09-7,6.25-10.39l-.92-.33a42.85,42.85,0,0,1-4.65-2.44l-.88-.51-2.14-1.24v-.9l1.21-.42,1.64-.57,1.61-.56c1.37-.5,2.69-1.09,4-1.7,3.43-1.59,7-3,10.46-4.34l3.56-1.42,2.27-.89,1.07-.43c2.49-1,2.49-1,4-1"/></g></svg>